<?xml version="1.0" encoding="UTF-8"?>
<!DOCTYPE svg PUBLIC "-//W3C//DTD SVG 1.1//EN" "http://www.w3.org/Graphics/SVG/1.1/DTD/svg11.dtd">
<svg xmlns="http://www.w3.org/2000/svg" version="1.1" width="899px" height="298px" style="shape-rendering:geometricPrecision; text-rendering:geometricPrecision; image-rendering:optimizeQuality; fill-rule:evenodd; clip-rule:evenodd" xmlns:xlink="http://www.w3.org/1999/xlink">
<g><path style="opacity:0.88" fill="#fefffe" d="M 524.5,2.5 C 532.491,0.66005 535.658,3.66005 534,11.5C 530.833,14.6667 527.667,17.8333 524.5,21C 516.145,24.8944 512.645,22.3944 514,13.5C 517.704,9.96427 521.204,6.2976 524.5,2.5 Z"/></g>
<g><path style="opacity:0.925" fill="#fefffe" d="M 396.5,6.5 C 402.176,6.33391 407.843,6.50058 413.5,7C 416.941,8.31844 418.275,10.8184 417.5,14.5C 452.066,22.5702 471.899,44.2369 477,79.5C 480.899,104.08 475.066,125.913 459.5,145C 454.327,149.587 448.327,152.587 441.5,154C 422.15,155.923 402.816,155.923 383.5,154C 379.409,149.875 379.742,146.209 384.5,143C 388.755,142.204 392.921,142.371 397,143.5C 397.794,101.82 397.627,60.153 396.5,18.5C 391.232,19.8609 388.566,17.8609 388.5,12.5C 388.39,10.626 389.056,9.12605 390.5,8C 392.708,7.80912 394.708,7.30912 396.5,6.5 Z M 409.5,25.5 C 436.247,29.0762 453.747,43.7428 462,69.5C 468.748,91.492 466.082,112.159 454,131.5C 449.861,137.152 444.361,140.652 437.5,142C 428.499,142.559 419.499,143.059 410.5,143.5C 409.941,104.169 409.608,64.8357 409.5,25.5 Z"/></g>
<g><path style="opacity:0.864" fill="#fefffe" d="M 620.5,11.5 C 623.518,11.3354 626.518,11.502 629.5,12C 633.5,16 633.5,20 629.5,24C 618.227,25.6031 615.227,21.4364 620.5,11.5 Z"/></g>
<g><path style="opacity:0.916" fill="#fefffe" d="M 573.5,13.5 C 581.507,13.3336 589.507,13.5003 597.5,14C 601.771,21.8966 599.437,25.3966 590.5,24.5C 591.54,64.4928 592.207,104.493 592.5,144.5C 600.618,144.382 602.618,147.882 598.5,155C 591.385,155.678 584.385,156.178 577.5,156.5C 572.622,155.417 570.789,152.417 572,147.5C 573.848,144.959 576.348,143.959 579.5,144.5C 579.889,104.798 579.222,65.1317 577.5,25.5C 571.644,25.146 569.477,22.146 571,16.5C 571.698,15.3094 572.531,14.3094 573.5,13.5 Z"/></g>
<g><path style="opacity:0.918" fill="#fefffe" d="M 678.5,26.5 C 698.678,25.0988 710.345,34.4322 713.5,54.5C 721.314,54.6247 723.314,58.1247 719.5,65C 712.813,65.2854 706.147,65.7854 699.5,66.5C 693.004,65.7677 690.837,62.4344 693,56.5C 695.507,54.8447 698.341,54.0114 701.5,54C 699.37,45.3705 694.037,39.8705 685.5,37.5C 680.994,38.6724 677.16,41.0057 674,44.5C 668.929,54.1792 666.262,64.5125 666,75.5C 665.333,87.8333 665.333,100.167 666,112.5C 667.174,122.362 670.508,131.362 676,139.5C 680.257,144.378 685.091,145.211 690.5,142C 698.292,133.808 702.292,123.974 702.5,112.5C 696.72,114.443 693.054,112.443 691.5,106.5C 692.128,104.742 693.128,103.242 694.5,102C 703.079,101.184 711.579,101.351 720,102.5C 723.082,108.675 721.249,112.008 714.5,112.5C 714.703,125.033 711.203,136.366 704,146.5C 695.084,155.873 684.584,158.04 672.5,153C 661.476,143.455 655.31,131.288 654,116.5C 651.781,96.411 652.448,76.411 656,56.5C 658.134,42.2326 665.634,32.2326 678.5,26.5 Z"/></g>
<g><path style="opacity:0.924" fill="#fefffe" d="M 758.5,26.5 C 770.873,24.3447 780.706,28.3447 788,38.5C 794.749,52.4079 797.416,67.0746 796,82.5C 795.045,89.2654 791.545,94.0987 785.5,97C 772.227,98.4245 758.894,98.9245 745.5,98.5C 744.481,113.941 748.314,127.941 757,140.5C 763.771,145.717 769.771,144.717 775,137.5C 779.507,129.814 782.007,121.48 782.5,112.5C 776.721,112.888 774.221,110.222 775,104.5C 775.833,103.667 776.667,102.833 777.5,102C 785.483,100.281 793.483,100.281 801.5,102C 805.367,105.418 805.367,108.751 801.5,112C 799.19,112.497 796.857,112.663 794.5,112.5C 794.704,125.026 791.204,136.359 784,146.5C 774.572,156.262 763.739,158.095 751.5,152C 742.217,143.938 736.717,133.771 735,121.5C 731.636,98.4034 732.303,75.4034 737,52.5C 740.128,40.229 747.295,31.5624 758.5,26.5 Z M 764.5,37.5 C 772.208,38.7015 777.375,43.0348 780,50.5C 783.574,60.9862 784.574,71.6528 783,82.5C 782.5,84.3333 781.333,85.5 779.5,86C 768.196,87.5339 756.863,87.7006 745.5,86.5C 745.549,74.2184 747.383,62.2184 751,50.5C 753.476,43.853 757.976,39.5197 764.5,37.5 Z"/></g>
<g><path style="opacity:0.922" fill="#fefffe" d="M 516.5,28.5 C 533.18,28.3425 543.68,36.3425 548,52.5C 551.467,64.0318 552.134,75.6985 550,87.5C 548.5,93 545,96.5 539.5,98C 526.844,99.7642 514.177,99.9309 501.5,98.5C 500.703,112.311 503.537,125.311 510,137.5C 516.314,146.253 522.98,146.586 530,138.5C 534.658,131.208 537.158,123.208 537.5,114.5C 530.32,113.143 528.654,109.31 532.5,103C 540.5,102.333 548.5,102.333 556.5,103C 560.82,110.835 558.487,114.335 549.5,113.5C 550.096,128.899 544.762,141.733 533.5,152C 515.167,159.927 502.334,154.427 495,135.5C 490.728,123.037 488.562,110.204 488.5,97C 488.983,84.1016 490.15,71.2683 492,58.5C 494.262,43.4271 502.429,33.4271 516.5,28.5 Z M 519.5,40.5 C 526.081,41.2401 530.914,44.5735 534,50.5C 538.627,62.1842 539.461,74.0176 536.5,86C 533.529,86.7943 530.529,87.461 527.5,88C 518.841,88.0726 510.174,87.9059 501.5,87.5C 501.496,75.5336 503.329,63.8669 507,52.5C 509.769,46.8947 513.936,42.8947 519.5,40.5 Z"/></g>
<g><path style="opacity:0.923" fill="#fefffe" d="M 847.5,30.5 C 871.265,27.2694 883.265,37.6027 883.5,61.5C 890.968,62.6744 892.301,66.1744 887.5,72C 879.389,74.1675 871.555,73.6675 864,70.5C 861.997,63.6727 864.497,60.6727 871.5,61.5C 871.756,45.9042 864.423,39.7375 849.5,43C 836.719,49.5968 833.553,59.4302 840,72.5C 842.552,76.7189 846.052,79.8855 850.5,82C 861.586,84.2474 871.919,88.2474 881.5,94C 892.711,105.625 895.544,119.125 890,134.5C 881.258,151.287 867.424,158.121 848.5,155C 835.762,151.262 827.262,143.096 823,130.5C 815.373,129.482 813.539,125.648 817.5,119C 824.216,118.546 830.883,118.212 837.5,118C 844.347,122.629 844.013,126.795 836.5,130.5C 845.47,144.826 857.137,147.66 871.5,139C 881.31,129.274 882.81,118.441 876,106.5C 873.408,103.238 870.241,100.738 866.5,99C 856.675,96.8826 847.342,93.5492 838.5,89C 823.858,76.2629 820.692,61.0963 829,43.5C 833.689,36.9643 839.856,32.6309 847.5,30.5 Z"/></g>
<g><path style="opacity:0.913" fill="#fefffe" d="M 620.5,35.5 C 626.176,35.3339 631.843,35.5006 637.5,36C 641.292,38.0527 642.458,41.2194 641,45.5C 638.174,47.3398 635.007,48.0065 631.5,47.5C 631.386,79.8395 631.719,112.173 632.5,144.5C 641.487,143.665 643.82,147.165 639.5,155C 633.153,155.345 626.82,155.845 620.5,156.5C 612.488,156.041 610.488,152.375 614.5,145.5C 616.071,144.691 617.738,144.357 619.5,144.5C 619.385,112.164 619.052,79.8306 618.5,47.5C 614.308,47.8234 612.308,45.8234 612.5,41.5C 612.39,39.626 613.056,38.126 614.5,37C 616.708,36.8091 618.708,36.3091 620.5,35.5 Z"/></g>
<g><path style="opacity:0.99" fill="#fcfafa" d="M -0.5,192.5 C -0.5,186.833 -0.5,181.167 -0.5,175.5C 6.22715,158.573 15.7271,143.239 28,129.5C 57.2128,96.9796 92.0462,72.4796 132.5,56C 144.378,51.79 156.378,51.1234 168.5,54C 175.577,57.6341 179.577,63.4674 180.5,71.5C 194.688,76.8555 201.688,87.1888 201.5,102.5C 209.1,102.296 214.434,105.629 217.5,112.5C 218.333,112.833 219.167,113.167 220,113.5C 258.875,107.969 298.042,111.469 337.5,124C 347.723,127.855 356.223,134.022 363,142.5C 366.489,149.934 366.322,157.267 362.5,164.5C 366.784,173.478 367.618,182.812 365,192.5C 363.682,195.801 361.848,198.801 359.5,201.5C 367.76,211.648 367.427,221.481 358.5,231C 347.449,239.355 335.116,245.022 321.5,248C 273.237,258.248 225.237,257.248 177.5,245C 165.983,241.945 156.15,236.112 148,227.5C 146.223,224.28 144.723,220.947 143.5,217.5C 124.797,231.047 104.797,242.213 83.5,251C 72.2414,254.998 60.9081,255.665 49.5,253C 41.1767,248.448 37.8433,241.615 39.5,232.5C 24.8492,229.849 16.1826,221.183 13.5,206.5C 7.09169,203.425 2.42502,198.759 -0.5,192.5 Z"/></g>
<g><path style="opacity:1" fill="#ff5290" d="M 96.5,140.5 C 91.8159,136.219 90.3159,130.885 92,124.5C 97.4651,112.576 102.632,100.576 107.5,88.5C 107.145,87.4777 106.478,86.811 105.5,86.5C 118.69,77.8449 133.023,71.6782 148.5,68C 152.5,67.3333 156.5,67.3333 160.5,68C 162.736,68.7339 164.069,70.2339 164.5,72.5C 162.148,79.8563 158.148,86.1896 152.5,91.5C 135.049,109.288 116.382,125.622 96.5,140.5 Z"/></g>
<g><path style="opacity:1" fill="#ff2c78" d="M 105.5,86.5 C 106.478,86.811 107.145,87.4777 107.5,88.5C 102.632,100.576 97.4651,112.576 92,124.5C 90.3159,130.885 91.8159,136.219 96.5,140.5C 76.4071,158.076 54.7404,173.576 31.5,187C 26.8043,189.68 21.8043,190.68 16.5,190C 14.4963,187.159 13.9963,183.993 15,180.5C 17.0238,173.442 20.0238,166.776 24,160.5C 46.1904,130.188 73.3571,105.521 105.5,86.5 Z"/></g>
<g><path style="opacity:1" fill="#ffe3b4" d="M 112.5,164.5 C 111.657,159.319 108.657,155.986 103.5,154.5C 121.564,139.947 139.231,124.78 156.5,109C 163.226,102.272 169.226,94.9391 174.5,87C 179.374,87.371 182.874,89.871 185,94.5C 185.667,97.8333 185.667,101.167 185,104.5C 180.644,109.854 175.977,114.854 171,119.5C 167.745,125.008 164.745,130.675 162,136.5C 158.466,140.369 154.633,143.869 150.5,147C 142.642,149.968 134.642,152.634 126.5,155C 121.631,157.929 116.965,161.096 112.5,164.5 Z"/></g>
<g><path style="opacity:1" fill="#ff5391" d="M 130.5,207.5 C 130.245,204.984 129.411,202.65 128,200.5C 128.144,191.111 127.31,182.111 125.5,173.5C 127.734,171.11 130.401,169.276 133.5,168C 157.184,163.752 173.684,150.585 183,128.5C 186.294,123.94 190.46,120.44 195.5,118C 200.699,117.031 203.366,119.198 203.5,124.5C 202.231,130.128 200.064,135.462 197,140.5C 178.666,166.667 156.5,189 130.5,207.5 Z"/></g>
<g><path style="opacity:1" fill="#ff2d78" d="M 282.5,127.5 C 275.691,135.062 268.858,142.729 262,150.5C 258.845,155.412 258.678,160.412 261.5,165.5C 243.164,165.667 224.83,165.5 206.5,165C 203.774,164.818 201.107,164.318 198.5,163.5C 207.655,153.369 213.989,141.703 217.5,128.5C 239.137,126.322 260.803,125.989 282.5,127.5 Z"/></g>
<g><path style="opacity:1" fill="#ff5290" d="M 282.5,127.5 C 300.664,129.687 318.331,133.854 335.5,140C 341.1,142.295 345.766,145.795 349.5,150.5C 350.428,151.768 350.595,153.101 350,154.5C 348.189,156.543 346.022,158.043 343.5,159C 335.029,161.643 326.362,163.309 317.5,164C 298.847,165.035 280.18,165.535 261.5,165.5C 258.678,160.412 258.845,155.412 262,150.5C 268.858,142.729 275.691,135.062 282.5,127.5 Z"/></g>
<g><path style="opacity:1" fill="#ffcc76" d="M 103.5,154.5 C 108.657,155.986 111.657,159.319 112.5,164.5C 110.873,166.63 109.04,168.63 107,170.5C 103.293,177.808 99.1261,184.808 94.5,191.5C 86.2393,199.796 76.2393,204.63 64.5,206C 58.2362,209.27 52.2362,212.936 46.5,217C 37.7011,218.205 32.0344,214.538 29.5,206C 29.5852,204.893 29.9186,203.893 30.5,203C 40.1858,199.645 49.1858,194.979 57.5,189C 72.9932,177.668 88.3266,166.168 103.5,154.5 Z"/></g>
<g><path style="opacity:1" fill="#ff2f79" d="M 125.5,173.5 C 127.31,182.111 128.144,191.111 128,200.5C 129.411,202.65 130.245,204.984 130.5,207.5C 109.97,223.182 87.1362,234.182 62,240.5C 55.0077,240.173 53.0077,236.84 56,230.5C 58.1667,227.667 60.6667,225.167 63.5,223C 70.868,219.572 78.5346,216.905 86.5,215C 101.565,207.605 112.065,196.105 118,180.5C 120.37,177.961 122.87,175.628 125.5,173.5 Z"/></g>
<g><path style="opacity:1" fill="#ffe3b4" d="M 245.5,195.5 C 249.97,194.514 254.637,194.181 259.5,194.5C 261.048,189.679 260.715,185.012 258.5,180.5C 277.52,180.716 296.52,180.216 315.5,179C 326.371,178.308 337.037,176.475 347.5,173.5C 348.442,173.608 349.275,173.941 350,174.5C 353.2,183.238 350.7,189.738 342.5,194C 336.769,194.21 331.103,194.876 325.5,196C 318.377,198.483 311.377,201.15 304.5,204C 298.833,204.667 293.167,204.667 287.5,204C 280.63,201.068 273.63,198.402 266.5,196C 259.508,195.5 252.508,195.334 245.5,195.5 Z"/></g>
<g><path style="opacity:1" fill="#ffcc76" d="M 258.5,180.5 C 260.715,185.012 261.048,189.679 259.5,194.5C 254.637,194.181 249.97,194.514 245.5,195.5C 237.003,197.743 228.67,200.576 220.5,204C 209.46,205.657 199.126,203.657 189.5,198C 183.291,196.04 176.957,194.707 170.5,194C 175.5,189 180.5,184 185.5,179C 209.77,180.355 234.103,180.855 258.5,180.5 Z"/></g>
<g><path style="opacity:0.845" fill="#fefffe" d="M 442.5,183.5 C 446.5,183.5 450.5,183.5 454.5,183.5C 454.5,184.833 454.5,186.167 454.5,187.5C 452.167,187.5 449.833,187.5 447.5,187.5C 447.5,189.167 447.5,190.833 447.5,192.5C 449.167,192.5 450.833,192.5 452.5,192.5C 452.5,193.833 452.5,195.167 452.5,196.5C 450.833,196.5 449.167,196.5 447.5,196.5C 447.5,203.833 447.5,211.167 447.5,218.5C 449.833,218.5 452.167,218.5 454.5,218.5C 454.5,219.833 454.5,221.167 454.5,222.5C 450.5,222.5 446.5,222.5 442.5,222.5C 442.5,209.5 442.5,196.5 442.5,183.5 Z"/></g>
<g><path style="opacity:0.808" fill="#fefffe" d="M 461.5,183.5 C 466.032,182.878 468.198,184.878 468,189.5C 467.516,184.138 469.683,182.471 474.5,184.5C 473.169,189.823 471.836,195.156 470.5,200.5C 472.012,207.547 473.679,214.547 475.5,221.5C 473.647,222.76 471.814,222.76 470,221.5C 468.398,209.891 466.898,210.224 465.5,222.5C 463.473,222.662 461.473,222.495 459.5,222C 461.573,214.878 463.573,207.711 465.5,200.5C 463.911,194.888 462.578,189.222 461.5,183.5 Z"/></g>
<g><path style="opacity:0.832" fill="#fefffe" d="M 481.5,183.5 C 485.182,183.335 488.848,183.501 492.5,184C 493.893,185.171 494.727,186.671 495,188.5C 495.896,196.246 495.563,203.913 494,211.5C 491.865,213.278 489.365,213.945 486.5,213.5C 486.5,216.5 486.5,219.5 486.5,222.5C 484.833,222.5 483.167,222.5 481.5,222.5C 481.5,209.5 481.5,196.5 481.5,183.5 Z M 486.5,187.5 C 488.017,187.511 489.184,188.177 490,189.5C 490.667,195.5 490.667,201.5 490,207.5C 489.311,208.357 488.478,209.023 487.5,209.5C 486.503,202.197 486.169,194.863 486.5,187.5 Z"/></g>
<g><path style="opacity:0.869" fill="#fefffe" d="M 501.5,183.5 C 505.167,183.5 508.833,183.5 512.5,183.5C 512.5,184.833 512.5,186.167 512.5,187.5C 510.5,187.5 508.5,187.5 506.5,187.5C 506.5,189.167 506.5,190.833 506.5,192.5C 507.833,192.5 509.167,192.5 510.5,192.5C 510.5,193.833 510.5,195.167 510.5,196.5C 509.167,196.5 507.833,196.5 506.5,196.5C 506.5,203.833 506.5,211.167 506.5,218.5C 508.5,218.5 510.5,218.5 512.5,218.5C 512.5,219.833 512.5,221.167 512.5,222.5C 508.833,222.5 505.167,222.5 501.5,222.5C 501.5,209.5 501.5,196.5 501.5,183.5 Z"/></g>
<g><path style="opacity:0.828" fill="#fefffe" d="M 518.5,183.5 C 522.182,183.335 525.848,183.501 529.5,184C 530.849,184.772 531.682,185.939 532,187.5C 532.667,194.833 532.667,202.167 532,209.5C 531.365,210.966 530.531,212.3 529.5,213.5C 530.58,216.332 531.58,219.165 532.5,222C 530.527,222.495 528.527,222.662 526.5,222.5C 524.264,210.738 523.264,210.738 523.5,222.5C 521.833,222.5 520.167,222.5 518.5,222.5C 518.5,209.5 518.5,196.5 518.5,183.5 Z M 523.5,187.5 C 525.017,187.511 526.184,188.177 527,189.5C 527.667,195.5 527.667,201.5 527,207.5C 526.311,208.357 525.478,209.023 524.5,209.5C 523.503,202.197 523.169,194.863 523.5,187.5 Z"/></g>
<g><path style="opacity:0.81" fill="#fefffe" d="M 538.5,183.5 C 540.167,183.5 541.833,183.5 543.5,183.5C 543.5,196.5 543.5,209.5 543.5,222.5C 541.833,222.5 540.167,222.5 538.5,222.5C 538.5,209.5 538.5,196.5 538.5,183.5 Z"/></g>
<g><path style="opacity:0.86" fill="#fefffe" d="M 548.5,183.5 C 552.167,183.5 555.833,183.5 559.5,183.5C 559.5,184.833 559.5,186.167 559.5,187.5C 557.5,187.5 555.5,187.5 553.5,187.5C 553.5,189.167 553.5,190.833 553.5,192.5C 555.167,192.5 556.833,192.5 558.5,192.5C 558.5,193.833 558.5,195.167 558.5,196.5C 556.833,196.5 555.167,196.5 553.5,196.5C 553.5,203.833 553.5,211.167 553.5,218.5C 555.833,218.5 558.167,218.5 560.5,218.5C 560.5,219.833 560.5,221.167 560.5,222.5C 556.5,222.5 552.5,222.5 548.5,222.5C 548.5,209.5 548.5,196.5 548.5,183.5 Z"/></g>
<g><path style="opacity:0.821" fill="#fefffe" d="M 565.5,183.5 C 570.133,182.458 573.299,184.125 575,188.5C 575.494,186.866 575.66,185.199 575.5,183.5C 577.167,183.5 578.833,183.5 580.5,183.5C 580.5,196.5 580.5,209.5 580.5,222.5C 578.833,222.5 577.167,222.5 575.5,222.5C 575.666,213.827 575.5,205.16 575,196.5C 573.426,195.016 572.093,193.349 571,191.5C 570.5,201.828 570.334,212.161 570.5,222.5C 568.833,222.5 567.167,222.5 565.5,222.5C 565.5,209.5 565.5,196.5 565.5,183.5 Z"/></g>
<g><path style="opacity:0.824" fill="#fefffe" d="M 588.5,183.5 C 596.753,181.12 600.419,184.12 599.5,192.5C 597.833,192.5 596.167,192.5 594.5,192.5C 594.5,191.167 594.5,189.833 594.5,188.5C 593.5,188.5 592.5,188.5 591.5,188.5C 591.5,198.167 591.5,207.833 591.5,217.5C 592.5,217.5 593.5,217.5 594.5,217.5C 594.5,216.167 594.5,214.833 594.5,213.5C 596.167,213.5 597.833,213.5 599.5,213.5C 600.408,222.041 596.741,224.874 588.5,222C 588,221.5 587.5,221 587,220.5C 586.333,208.833 586.333,197.167 587,185.5C 587.717,184.956 588.217,184.289 588.5,183.5 Z"/></g>
<g><path style="opacity:0.82" fill="#fefffe" d="M 605.5,183.5 C 607.167,183.5 608.833,183.5 610.5,183.5C 610.5,196.5 610.5,209.5 610.5,222.5C 608.833,222.5 607.167,222.5 605.5,222.5C 605.5,209.5 605.5,196.5 605.5,183.5 Z"/></g>
<g><path style="opacity:0.822" fill="#fefffe" d="M 618.5,183.5 C 621.187,183.336 623.854,183.503 626.5,184C 627.667,184.5 628.5,185.333 629,186.5C 629.5,198.495 629.667,210.495 629.5,222.5C 627.833,222.5 626.167,222.5 624.5,222.5C 624.5,213.833 624.5,205.167 624.5,196.5C 623.167,196.5 621.833,196.5 620.5,196.5C 620.5,205.167 620.5,213.833 620.5,222.5C 618.833,222.5 617.167,222.5 615.5,222.5C 615.333,210.829 615.5,199.162 616,187.5C 616.662,186.016 617.496,184.683 618.5,183.5 Z M 621.5,188.5 C 623.912,188.694 624.912,190.027 624.5,192.5C 623.167,192.5 621.833,192.5 620.5,192.5C 620.433,191.041 620.766,189.708 621.5,188.5 Z"/></g>
<g><path style="opacity:0.837" fill="#fefffe" d="M 650.5,183.5 C 654.182,183.335 657.848,183.501 661.5,184C 662.701,184.903 663.535,186.069 664,187.5C 664.667,194.833 664.667,202.167 664,209.5C 662.323,213.051 659.49,214.384 655.5,213.5C 655.5,216.5 655.5,219.5 655.5,222.5C 653.833,222.5 652.167,222.5 650.5,222.5C 650.5,209.5 650.5,196.5 650.5,183.5 Z M 655.5,187.5 C 657.017,187.511 658.184,188.177 659,189.5C 659.667,195.5 659.667,201.5 659,207.5C 658.311,208.357 657.478,209.023 656.5,209.5C 655.503,202.197 655.169,194.863 655.5,187.5 Z"/></g>
<g><path style="opacity:0.833" fill="#fefffe" d="M 672.5,183.5 C 675.518,183.335 678.518,183.502 681.5,184C 682,184.5 682.5,185 683,185.5C 683.5,197.829 683.667,210.162 683.5,222.5C 681.833,222.5 680.167,222.5 678.5,222.5C 678.5,213.833 678.5,205.167 678.5,196.5C 677.5,196.5 676.5,196.5 675.5,196.5C 675.5,205.167 675.5,213.833 675.5,222.5C 673.833,222.5 672.167,222.5 670.5,222.5C 670.333,210.162 670.5,197.829 671,185.5C 671.717,184.956 672.217,184.289 672.5,183.5 Z M 676.5,187.5 C 678.213,188.635 678.88,190.302 678.5,192.5C 677.5,192.5 676.5,192.5 675.5,192.5C 675.366,190.708 675.699,189.042 676.5,187.5 Z"/></g>
<g><path style="opacity:0.824" fill="#fefffe" d="M 689.5,183.5 C 693.514,183.334 697.514,183.501 701.5,184C 702,184.5 702.5,185 703,185.5C 704.067,195.196 703.567,204.696 701.5,214C 702.275,216.822 702.942,219.656 703.5,222.5C 701.533,222.739 699.699,222.406 698,221.5C 695.112,210.724 693.945,211.058 694.5,222.5C 692.833,222.5 691.167,222.5 689.5,222.5C 689.5,209.5 689.5,196.5 689.5,183.5 Z M 694.5,187.5 C 695.583,187.539 696.583,187.873 697.5,188.5C 698.833,195.167 698.833,201.833 697.5,208.5C 696.833,208.833 696.167,209.167 695.5,209.5C 694.503,202.197 694.169,194.863 694.5,187.5 Z"/></g>
<g><path style="opacity:0.81" fill="#fefffe" d="M 709.5,183.5 C 711.167,183.5 712.833,183.5 714.5,183.5C 714.5,196.5 714.5,209.5 714.5,222.5C 712.833,222.5 711.167,222.5 709.5,222.5C 709.5,209.5 709.5,196.5 709.5,183.5 Z"/></g>
<g><path style="opacity:0.814" fill="#fefffe" d="M 722.5,183.5 C 730.753,181.12 734.419,184.12 733.5,192.5C 731.833,192.5 730.167,192.5 728.5,192.5C 728.657,191.127 728.49,189.793 728,188.5C 727.333,187.167 726.667,187.167 726,188.5C 725.333,191.5 725.333,194.5 726,197.5C 733.733,204.309 735.566,212.475 731.5,222C 721.657,224.322 717.99,220.488 720.5,210.5C 721.833,210.5 723.167,210.5 724.5,210.5C 724.338,212.527 724.505,214.527 725,216.5C 726,217.833 727,217.833 728,216.5C 728.667,213.5 728.667,210.5 728,207.5C 720.144,200.954 718.31,192.954 722.5,183.5 Z"/></g>
<g><path style="opacity:0.82" fill="#fefffe" d="M 737.5,183.5 C 739.167,183.5 740.833,183.5 742.5,183.5C 742.5,196.5 742.5,209.5 742.5,222.5C 740.833,222.5 739.167,222.5 737.5,222.5C 737.5,209.5 737.5,196.5 737.5,183.5 Z"/></g>
<g><path style="opacity:0.819" fill="#fefffe" d="M 747.5,183.5 C 752.133,182.458 755.299,184.125 757,188.5C 757.494,186.866 757.66,185.199 757.5,183.5C 759.167,183.5 760.833,183.5 762.5,183.5C 762.5,196.5 762.5,209.5 762.5,222.5C 760.833,222.5 759.167,222.5 757.5,222.5C 757.666,213.827 757.5,205.16 757,196.5C 755.287,195.122 753.953,193.455 753,191.5C 752.5,201.828 752.334,212.161 752.5,222.5C 750.833,222.5 749.167,222.5 747.5,222.5C 747.5,209.5 747.5,196.5 747.5,183.5 Z"/></g>
<g><path style="opacity:0.833" fill="#fefffe" d="M 770.5,183.5 C 773.518,183.335 776.518,183.502 779.5,184C 780,184.5 780.5,185 781,185.5C 781.5,197.829 781.667,210.162 781.5,222.5C 779.833,222.5 778.167,222.5 776.5,222.5C 776.5,213.833 776.5,205.167 776.5,196.5C 775.5,196.5 774.5,196.5 773.5,196.5C 773.5,205.167 773.5,213.833 773.5,222.5C 771.833,222.5 770.167,222.5 768.5,222.5C 768.333,210.162 768.5,197.829 769,185.5C 769.717,184.956 770.217,184.289 770.5,183.5 Z M 774.5,187.5 C 776.213,188.635 776.88,190.302 776.5,192.5C 775.5,192.5 774.5,192.5 773.5,192.5C 773.366,190.708 773.699,189.042 774.5,187.5 Z"/></g>
<g><path style="opacity:0.845" fill="#fefffe" d="M 802.5,183.5 C 806.5,183.5 810.5,183.5 814.5,183.5C 814.5,184.833 814.5,186.167 814.5,187.5C 812.167,187.5 809.833,187.5 807.5,187.5C 807.5,189.167 807.5,190.833 807.5,192.5C 809.167,192.5 810.833,192.5 812.5,192.5C 812.5,193.833 812.5,195.167 812.5,196.5C 810.833,196.5 809.167,196.5 807.5,196.5C 807.5,203.833 807.5,211.167 807.5,218.5C 809.833,218.5 812.167,218.5 814.5,218.5C 814.5,219.833 814.5,221.167 814.5,222.5C 810.5,222.5 806.5,222.5 802.5,222.5C 802.5,209.5 802.5,196.5 802.5,183.5 Z"/></g>
<g><path style="opacity:0.824" fill="#fefffe" d="M 820.5,183.5 C 824.273,182.822 827.106,184.156 829,187.5C 829.49,186.207 829.657,184.873 829.5,183.5C 831.167,183.5 832.833,183.5 834.5,183.5C 834.5,196.5 834.5,209.5 834.5,222.5C 832.833,222.5 831.167,222.5 829.5,222.5C 829.666,213.827 829.5,205.16 829,196.5C 828.385,194.884 827.385,193.551 826,192.5C 825.5,202.494 825.334,212.494 825.5,222.5C 823.833,222.5 822.167,222.5 820.5,222.5C 820.5,209.5 820.5,196.5 820.5,183.5 Z"/></g>
<g><path style="opacity:1" fill="#ff2f79" d="M 273.5,214.5 C 264.674,218.138 255.674,221.638 246.5,225C 241.386,228.061 239.053,232.561 239.5,238.5C 236.833,238.5 234.167,238.5 231.5,238.5C 211.464,238.036 192.131,234.203 173.5,227C 168.387,224.694 163.887,221.528 160,217.5C 158.958,214.196 160.125,212.029 163.5,211C 169.053,209.43 174.719,209.097 180.5,210C 185.651,212.076 190.651,214.41 195.5,217C 206.833,220.333 218.167,220.333 229.5,217C 235.053,214.39 240.719,212.057 246.5,210C 256.126,208.398 265.126,209.898 273.5,214.5 Z"/></g>
<g><path style="opacity:1" fill="#ff5391" d="M 231.5,238.5 C 234.167,238.5 236.833,238.5 239.5,238.5C 239.053,232.561 241.386,228.061 246.5,225C 255.674,221.638 264.674,218.138 273.5,214.5C 283.664,219.125 294.33,220.625 305.5,219C 313.744,216.586 321.744,213.586 329.5,210C 335.724,208.939 341.724,209.606 347.5,212C 349.984,214.284 350.151,216.784 348,219.5C 341.808,224.18 334.975,227.68 327.5,230C 295.858,238.309 263.858,241.142 231.5,238.5 Z"/></g>
<g><path style="opacity:0.822" fill="#fefffe" d="M 561.5,237.5 C 564.187,237.336 566.854,237.503 569.5,238C 570.667,238.5 571.5,239.333 572,240.5C 572.5,252.495 572.667,264.495 572.5,276.5C 570.833,276.5 569.167,276.5 567.5,276.5C 567.5,267.833 567.5,259.167 567.5,250.5C 566.167,250.5 564.833,250.5 563.5,250.5C 563.5,259.167 563.5,267.833 563.5,276.5C 561.833,276.5 560.167,276.5 558.5,276.5C 558.333,264.829 558.5,253.162 559,241.5C 559.662,240.016 560.496,238.683 561.5,237.5 Z M 564.5,242.5 C 566.912,242.694 567.912,244.027 567.5,246.5C 566.167,246.5 564.833,246.5 563.5,246.5C 563.433,245.041 563.766,243.708 564.5,242.5 Z"/></g>
<g><path style="opacity:0.828" fill="#fefffe" d="M 578.5,237.5 C 582.182,237.335 585.848,237.501 589.5,238C 590.849,238.772 591.682,239.939 592,241.5C 592.667,248.833 592.667,256.167 592,263.5C 591.365,264.966 590.531,266.3 589.5,267.5C 590.58,270.332 591.58,273.165 592.5,276C 590.527,276.495 588.527,276.662 586.5,276.5C 584.264,264.738 583.264,264.738 583.5,276.5C 581.833,276.5 580.167,276.5 578.5,276.5C 578.5,263.5 578.5,250.5 578.5,237.5 Z M 583.5,241.5 C 585.017,241.511 586.184,242.177 587,243.5C 587.667,249.5 587.667,255.5 587,261.5C 586.311,262.357 585.478,263.023 584.5,263.5C 583.503,256.197 583.169,248.863 583.5,241.5 Z"/></g>
<g><path style="opacity:0.82" fill="#fefffe" d="M 600.5,237.5 C 603.518,237.335 606.518,237.502 609.5,238C 611.016,239.897 611.683,242.064 611.5,244.5C 608.675,244.838 606.508,243.838 605,241.5C 604.667,241.833 604.333,242.167 604,242.5C 603.5,252.161 603.334,261.828 603.5,271.5C 604.5,271.5 605.5,271.5 606.5,271.5C 606.9,263.036 606.233,254.702 604.5,246.5C 606.833,246.5 609.167,246.5 611.5,246.5C 611.5,256.5 611.5,266.5 611.5,276.5C 607.818,276.665 604.152,276.499 600.5,276C 600,275.5 599.5,275 599,274.5C 598.333,262.833 598.333,251.167 599,239.5C 599.717,238.956 600.217,238.289 600.5,237.5 Z"/></g>
<g><path style="opacity:0.845" fill="#fefffe" d="M 617.5,237.5 C 621.5,237.5 625.5,237.5 629.5,237.5C 629.5,238.833 629.5,240.167 629.5,241.5C 627.167,241.5 624.833,241.5 622.5,241.5C 622.5,243.167 622.5,244.833 622.5,246.5C 624.167,246.5 625.833,246.5 627.5,246.5C 627.5,247.833 627.5,249.167 627.5,250.5C 625.833,250.5 624.167,250.5 622.5,250.5C 622.5,257.833 622.5,265.167 622.5,272.5C 624.833,272.5 627.167,272.5 629.5,272.5C 629.5,273.833 629.5,275.167 629.5,276.5C 625.5,276.5 621.5,276.5 617.5,276.5C 617.5,263.5 617.5,250.5 617.5,237.5 Z"/></g>
<g><path style="opacity:0.824" fill="#fefffe" d="M 635.5,237.5 C 639.273,236.822 642.106,238.156 644,241.5C 644.49,240.207 644.657,238.873 644.5,237.5C 646.167,237.5 647.833,237.5 649.5,237.5C 649.5,250.5 649.5,263.5 649.5,276.5C 647.833,276.5 646.167,276.5 644.5,276.5C 644.666,267.827 644.5,259.16 644,250.5C 643.385,248.884 642.385,247.551 641,246.5C 640.5,256.494 640.334,266.494 640.5,276.5C 638.833,276.5 637.167,276.5 635.5,276.5C 635.5,263.5 635.5,250.5 635.5,237.5 Z"/></g>
<g><path style="opacity:0.826" fill="#fefffe" d="M 655.5,237.5 C 660.167,237.5 664.833,237.5 669.5,237.5C 669.5,238.833 669.5,240.167 669.5,241.5C 667.833,241.5 666.167,241.5 664.5,241.5C 664.5,253.167 664.5,264.833 664.5,276.5C 662.833,276.5 661.167,276.5 659.5,276.5C 659.5,264.833 659.5,253.167 659.5,241.5C 658.167,241.5 656.833,241.5 655.5,241.5C 655.5,240.167 655.5,238.833 655.5,237.5 Z"/></g>
<g><path style="opacity:0.798" fill="#fefffe" d="M 674.5,237.5 C 676.167,237.5 677.833,237.5 679.5,237.5C 679.5,250.5 679.5,263.5 679.5,276.5C 677.833,276.5 676.167,276.5 674.5,276.5C 674.5,263.5 674.5,250.5 674.5,237.5 Z"/></g>
<g><path style="opacity:0.824" fill="#fefffe" d="M 684.5,237.5 C 688.273,236.822 691.106,238.156 693,241.5C 693.49,240.207 693.657,238.873 693.5,237.5C 695.167,237.5 696.833,237.5 698.5,237.5C 698.5,250.5 698.5,263.5 698.5,276.5C 696.833,276.5 695.167,276.5 693.5,276.5C 693.666,267.827 693.5,259.16 693,250.5C 692.385,248.884 691.385,247.551 690,246.5C 689.5,256.494 689.334,266.494 689.5,276.5C 687.833,276.5 686.167,276.5 684.5,276.5C 684.5,263.5 684.5,250.5 684.5,237.5 Z"/></g>
<g><path style="opacity:0.822" fill="#fefffe" d="M 707.5,237.5 C 710.187,237.336 712.854,237.503 715.5,238C 716.667,238.5 717.5,239.333 718,240.5C 718.5,252.495 718.667,264.495 718.5,276.5C 716.833,276.5 715.167,276.5 713.5,276.5C 713.5,267.833 713.5,259.167 713.5,250.5C 712.167,250.5 710.833,250.5 709.5,250.5C 709.5,259.167 709.5,267.833 709.5,276.5C 707.833,276.5 706.167,276.5 704.5,276.5C 704.333,264.829 704.5,253.162 705,241.5C 705.662,240.016 706.496,238.683 707.5,237.5 Z M 710.5,242.5 C 712.912,242.694 713.912,244.027 713.5,246.5C 712.167,246.5 710.833,246.5 709.5,246.5C 709.433,245.041 709.766,243.708 710.5,242.5 Z"/></g>
</svg>
