<?xml version="1.0" encoding="UTF-8"?>
<!DOCTYPE svg PUBLIC "-//W3C//DTD SVG 1.1//EN" "http://www.w3.org/Graphics/SVG/1.1/DTD/svg11.dtd">
<svg xmlns="http://www.w3.org/2000/svg" version="1.1" width="512px" height="512px" style="shape-rendering:geometricPrecision; text-rendering:geometricPrecision; image-rendering:optimizeQuality; fill-rule:evenodd; clip-rule:evenodd" xmlns:xlink="http://www.w3.org/1999/xlink">
<g><path style="opacity:0.98" fill="#fefffe" d="M 13.5,-0.5 C 21.1667,-0.5 28.8333,-0.5 36.5,-0.5C 69.9225,7.61185 87.9225,28.9452 90.5,63.5C 209.167,63.3333 327.834,63.5 446.5,64C 475.98,71.1467 493.48,89.6467 499,119.5C 499.827,128.934 499.16,138.267 497,147.5C 491.892,175.147 486.892,202.814 482,230.5C 474.263,268.569 452.763,295.736 417.5,312C 408.783,315.429 399.783,317.763 390.5,319C 301.167,319.333 211.833,319.667 122.5,320C 131.995,342.924 148.995,356.591 173.5,361C 253.21,361.011 332.877,361.678 412.5,363C 426.006,369.844 429.84,380.344 424,394.5C 420.474,400.352 415.307,403.852 408.5,405C 330.5,405.667 252.5,405.667 174.5,405C 129.285,400.117 98.1184,376.617 81,334.5C 78.5701,327.684 76.9034,320.684 76,313.5C 66,228.833 56,144.167 46,59.5C 43.8333,50.6667 38.3333,45.1667 29.5,43C 15.514,44.8453 5.51398,39.6786 -0.5,27.5C -0.5,22.8333 -0.5,18.1667 -0.5,13.5C 2.5,7.16667 7.16667,2.5 13.5,-0.5 Z M 95.5,106.5 C 209.834,106.333 324.167,106.5 438.5,107C 446.469,108.966 451.969,113.799 455,121.5C 455.663,127.548 455.33,133.548 454,139.5C 448.537,171.28 442.537,202.946 436,234.5C 425.897,258.301 408.063,272.135 382.5,276C 293.501,276.5 204.501,276.667 115.5,276.5C 108.997,219.808 102.33,163.141 95.5,106.5 Z"/></g>
<g><path style="opacity:0.972" fill="#fefffe" d="M 158.5,511.5 C 152.167,511.5 145.833,511.5 139.5,511.5C 116.099,504.235 104.932,488.235 106,463.5C 110.619,439.883 124.953,427.216 149,425.5C 170.961,427.131 184.961,438.464 191,459.5C 194.077,485.703 183.244,503.036 158.5,511.5 Z"/></g>
<g><path style="opacity:0.972" fill="#fefffe" d="M 371.5,511.5 C 365.167,511.5 358.833,511.5 352.5,511.5C 327.756,503.036 316.923,485.703 320,459.5C 326.039,438.464 340.039,427.131 362,425.5C 386.047,427.216 400.381,439.883 405,463.5C 406.068,488.235 394.901,504.235 371.5,511.5 Z"/></g>
</svg>
